HIERARCHY
ROOT root
{
	OFFSET 0.000000 0.000000 0.000000
	CHANNELS 6 Xposition Yposition Zposition Zrotation Yrotation Xrotation
	JOINT lhip
	{
		OFFSET 0.058581 -0.082280 -0.017664
		CHANNELS 3 Zrotation Yrotation Xrotation
		JOINT lknee
		{
			OFFSET 0.043451 -0.386469 0.008037
			CHANNELS 3 Zrotation Yrotation Xrotation
			JOINT lankle
			{
				OFFSET -0.014790 -0.426874 -0.037428
				CHANNELS 3 Zrotation Yrotation Xrotation
				JOINT ltoe
				{
					OFFSET 0.041054 -0.060286 0.122042
					CHANNELS 3 Zrotation Yrotation Xrotation
					End Site
					{
						OFFSET 0.000000 0.000000 0.000000
					}
				}
			}
		}
	}
	JOINT rhip
	{
		OFFSET -0.060310 -0.090513 -0.013543
		CHANNELS 3 Zrotation Yrotation Xrotation
		JOINT rknee
		{
			OFFSET -0.043257 -0.383688 -0.004843
			CHANNELS 3 Zrotation Yrotation Xrotation
			JOINT rankle
			{
				OFFSET 0.019056 -0.420046 -0.034562
				CHANNELS 3 Zrotation Yrotation Xrotation
				JOINT rtoe
				{
					OFFSET -0.034840 -0.062106 0.130323
					CHANNELS 3 Zrotation Yrotation Xrotation
					End Site
					{
						OFFSET 0.000000 0.000000 0.000000
					}
				}
			}
		}
	}
	JOINT lowerback
	{
		OFFSET 0.004439 0.124404 -0.038385
		CHANNELS 3 Zrotation Yrotation Xrotation
		JOINT upperback
		{
			OFFSET 0.004488 0.137956 0.026820
			CHANNELS 3 Zrotation Yrotation Xrotation
			JOINT chest
			{
				OFFSET -0.002265 0.056032 0.002855
				CHANNELS 3 Zrotation Yrotation Xrotation
				JOINT lowerneck
				{
					OFFSET -0.013390 0.211636 -0.033468
					CHANNELS 3 Zrotation Yrotation Xrotation
					JOINT upperneck
					{
						OFFSET 0.010113 0.088937 0.050410
						CHANNELS 3 Zrotation Yrotation Xrotation
						End Site
						{
							OFFSET 0.000000 0.000000 0.000000
						}
					}
				}
				JOINT lclavicle
				{
					OFFSET 0.071702 0.114000 -0.018898
					CHANNELS 3 Zrotation Yrotation Xrotation
					JOINT lshoulder
					{
						OFFSET 0.122921 0.045205 -0.019046
						CHANNELS 3 Zrotation Yrotation Xrotation
						JOINT lelbow
						{
							OFFSET 0.255332 -0.015649 -0.022946
							CHANNELS 3 Zrotation Yrotation Xrotation
							JOINT lwrist
							{
								OFFSET 0.265709 0.012698 -0.007375
								CHANNELS 3 Zrotation Yrotation Xrotation
								End Site
								{
									OFFSET 0.000000 0.000000 0.000000
								}
							}
						}
					}
				}
				JOINT rclavicle
				{
					OFFSET -0.082954 0.112472 -0.023707
					CHANNELS 3 Zrotation Yrotation Xrotation
					JOINT rshoulder
					{
						OFFSET -0.113228 0.046853 -0.008472
						CHANNELS 3 Zrotation Yrotation Xrotation
						JOINT relbow
						{
							OFFSET -0.260127 -0.014369 -0.031269
							CHANNELS 3 Zrotation Yrotation Xrotation
							JOINT rwrist
							{
								OFFSET -0.269108 0.006794 -0.006027
								CHANNELS 3 Zrotation Yrotation Xrotation
								End Site
								{
									OFFSET 0.000000 0.000000 0.000000
								}
							}
						}
					}
				}
			}
		}
	}
}
MOTION
Frames: 8
Frame Time: 0.033333
-1.234672 0.260969 1.015152 89.249856 0.292428 90.209998 -0.558822 2.028568 0.676077 -3.341640 -5.285850 1.886675 2.487678 8.323768 -11.211332 0.000000 -0.000000 0.000000 2.599667 -1.185961 -4.639803 -0.007966 -2.090283 11.696757 2.631063 -7.143271 -9.444893 0.000000 -0.000000 0.000000 1.988974 -0.323216 8.001212 0.081775 -0.188397 -3.387983 -2.112310 -0.768363 0.128232 2.709735 -10.820248 -5.450596 -0.845178 -17.725971 6.710524 -28.404373 4.811710 2.697827 -54.209784 -3.985444 11.114704 0.823516 -32.131284 17.183158 -11.875044 -8.722422 -2.091990 25.971808 2.078646 -0.996434 61.025666 1.461986 13.894087 -11.846472 20.350184 -1.220705 6.005956 2.999950 -2.738318 
-1.234460 0.261444 1.015069 88.963200 0.193096 90.180559 -0.689037 2.196889 0.693790 -3.233296 -5.312097 1.957705 2.920729 7.930997 -10.655204 0.000000 -0.000000 0.000000 2.445335 -1.240745 -4.713671 -0.049107 -2.034271 11.852199 2.862788 -6.851872 -9.543064 0.000000 -0.000000 0.000000 1.845743 -0.366731 8.260953 0.243539 -0.316358 -3.514535 -2.104107 -0.877641 0.132100 2.514185 -10.510619 -5.565213 -1.042098 -17.453795 7.092827 -28.679198 4.893166 2.632608 -54.460673 -3.969228 11.033886 1.943003 -31.770228 15.525457 -9.498414 -8.527741 -1.880211 25.968989 2.165181 -1.059756 60.966240 1.690011 13.962535 -12.150005 20.937073 -1.796536 5.524560 3.212258 -3.120921 
-1.234240 0.262011 1.014855 88.569749 0.265376 90.182914 -0.710899 2.305526 0.713320 -3.165004 -5.279357 1.952380 2.861921 8.200181 -10.751874 0.000000 -0.000000 0.000000 2.477165 -1.229213 -4.820297 -0.064786 -1.948241 12.000783 2.931347 -6.621392 -9.617002 0.000000 -0.000000 0.000000 1.986392 -0.453623 8.356686 0.226250 -0.301712 -3.648562 -2.080141 -0.963818 0.273203 2.457893 -10.354475 -5.546164 -1.152061 -17.266084 7.399451 -28.810820 4.940705 2.552551 -54.799539 -3.923333 10.915964 2.962110 -31.357078 13.594906 -7.041569 -8.510520 -2.227780 25.962187 2.190460 -1.162950 60.917568 1.966782 14.138936 -12.288638 21.497036 -2.326507 4.631433 3.417145 -3.550890 
-1.234020 0.262680 1.014502 88.076455 0.392314 90.324326 -0.675716 2.337610 0.653404 -3.165832 -5.153184 1.878359 2.680010 8.707537 -11.378878 0.000000 -0.000000 0.000000 2.551490 -1.043547 -5.014311 -0.015170 -1.756873 12.069320 3.053166 -6.588542 -9.673509 0.000000 -0.000000 0.000000 2.146297 -0.676148 8.242086 0.235741 -0.275422 -3.634280 -2.041276 -1.044630 0.468327 2.480300 -9.863162 -5.824464 -1.363881 -16.736919 7.863818 -28.992279 5.200613 2.255009 -54.898120 -3.961673 10.652155 3.723082 -30.889842 11.766007 -5.570073 -8.414827 -2.896480 26.134382 2.064784 -1.430440 60.690739 2.476918 14.465083 -12.211505 22.320870 -2.781005 4.074292 3.438377 -3.738142 
-1.233878 0.262843 1.014421 87.920253 0.410712 90.361640 -0.654681 2.351378 0.632084 -3.201702 -5.106463 1.875944 2.744322 8.752731 -11.432207 0.000000 -0.000000 0.000000 2.547447 -0.947300 -5.042916 0.010328 -1.714763 12.076372 3.067656 -6.568927 -9.690966 0.000000 -0.000000 0.000000 2.137379 -0.731873 8.208505 0.276861 -0.267615 -3.609378 -2.020247 -1.073464 0.489843 2.462969 -9.737691 -5.880041 -1.440872 -16.626807 7.933354 -29.038358 5.283236 2.215337 -54.841116 -3.946032 10.583549 3.836489 -30.874050 11.584822 -5.653508 -8.435519 -3.032745 26.174747 2.048330 -1.456414 60.629629 2.613435 14.586388 -12.199029 22.614934 -2.774231 4.019719 3.495792 -3.771533 
-1.233476 0.263021 1.014319 87.608977 0.414974 90.389853 -0.647266 2.439026 0.694831 -3.211029 -4.841065 1.793520 2.603774 8.715018 -11.381669 0.000000 -0.000000 0.000000 2.524490 -0.849943 -5.071256 -0.022190 -1.644622 12.073368 3.067161 -6.448503 -9.690090 0.000000 -0.000000 0.000000 2.075214 -0.745916 8.173960 0.359287 -0.313129 -3.493681 -1.961411 -1.070077 0.464800 2.417430 -9.526897 -5.835633 -1.519970 -16.541553 7.906197 -29.059516 5.311400 2.220362 -54.677098 -3.903114 10.493077 3.929995 -30.920014 11.505795 -6.006685 -8.501095 -3.128403 26.251741 2.059550 -1.531162 60.624803 2.770356 14.681462 -12.346745 23.165511 -2.867706 3.993826 3.767600 -3.964739 
-1.233187 0.263085 1.014273 87.414993 0.420498 90.457497 -0.664000 2.467592 0.651330 -3.195576 -4.716652 1.784328 2.703527 8.651853 -11.238570 0.000000 -0.000000 0.000000 2.507631 -0.762402 -5.165613 0.002511 -1.605434 12.101015 3.074949 -6.410937 -9.674360 0.000000 -0.000000 0.000000 2.007284 -0.746405 8.193845 0.420392 -0.383340 -3.516132 -1.912881 -1.084993 0.408552 2.385548 -9.290665 -5.694406 -1.523564 -16.389505 7.810063 -28.938858 5.300197 2.250946 -54.533859 -3.877799 10.436910 3.984296 -30.819734 11.647839 -6.470959 -8.572757 -3.089910 26.344027 2.051877 -1.572309 60.648751 2.916079 14.735816 -12.467564 23.557103 -2.894758 4.184113 3.763602 -4.134716 
-1.232851 0.263194 1.014195 87.321679 0.395391 90.475387 -0.687302 2.612419 0.614401 -3.167037 -4.681227 1.823241 2.724425 8.414075 -10.731964 0.000000 -0.000000 0.000000 2.445452 -0.761374 -5.224194 0.021200 -1.574012 12.149286 3.018783 -6.357975 -9.641955 0.000000 -0.000000 0.000000 1.926812 -0.787547 8.347377 0.446333 -0.434240 -3.642213 -1.875380 -1.109968 0.365513 2.329644 -9.102396 -5.641604 -1.485519 -16.141185 7.733630 -28.854758 5.241239 2.257634 -54.332212 -3.858561 10.326838 4.052364 -30.660607 11.635319 -6.648856 -8.750778 -3.121719 26.425634 2.099081 -1.456001 60.660240 3.004025 14.802180 -12.411354 23.879783 -2.761168 4.249817 3.785475 -4.249418 
